<svg width="65" height="65" viewBox="0 0 65 65" fill="none" xmlns="http://www.w3.org/2000/svg">
<path d="M32.5 65C25.9546 65 20.0881 63.2438 14.9005 59.7313C9.71284 56.2188 5.81902 51.4938 3.21905 45.5563V56.25H0V40H16.0952V43.25H5.7757C7.85574 48.8167 11.342 53.2917 16.2345 56.675C21.1271 60.0583 26.5489 61.75 32.5 61.75C36.3587 61.75 39.9832 61.051 43.3735 59.6531C46.7639 58.2552 49.7498 56.326 52.3312 53.8656C54.9127 51.4052 57.0092 48.4843 58.6207 45.1031C60.2323 41.7218 61.1619 38.0625 61.4096 34.125H64.6286C64.4223 38.4291 63.4349 42.4562 61.6664 46.2062C59.898 49.9562 57.5797 53.2271 54.7114 56.0188C51.8432 58.8104 48.5004 61.0052 44.6829 62.6031C40.8654 64.201 36.8045 65 32.5 65ZM30.841 54V50.025C28.6495 49.5125 26.7831 48.6344 25.2417 47.3906C23.7002 46.1469 22.4714 44.4125 21.5552 42.1875L24.3905 40.95C25.2819 42.9625 26.4736 44.5135 27.9655 45.6031C29.4574 46.6927 31.1299 47.2375 32.9829 47.2375C34.8772 47.2375 36.6507 46.7344 38.3035 45.7281C39.9564 44.7219 40.7829 43.075 40.7829 40.7875C40.7829 38.9667 40.1875 37.5375 38.9969 36.5C37.8063 35.4625 35.4797 34.3 32.0171 33.0125C28.5628 31.75 26.1083 30.4167 24.6536 29.0125C23.1988 27.6083 22.4715 25.7375 22.4715 23.4C22.4715 21.4291 23.205 19.6094 24.6722 17.9406C26.1393 16.2719 28.2492 15.2292 31.0019 14.8125V11H34.159V14.8125C35.8428 14.9333 37.4142 15.5208 38.8731 16.575C40.332 17.6292 41.4391 18.9375 42.1943 20.5L39.3962 21.6125C38.7194 20.45 37.8362 19.4907 36.7466 18.7344C35.6572 17.9781 34.2953 17.6 32.661 17.6C30.5356 17.6 28.8322 18.1521 27.5507 19.2563C26.2693 20.3604 25.6285 21.7417 25.6285 23.4C25.6285 25.0583 26.1217 26.3354 27.1081 27.2313C28.0945 28.1271 30.3623 29.2 33.9115 30.45C37.7743 31.8583 40.3908 33.3646 41.761 34.9688C43.1311 36.5729 43.8162 38.5125 43.8162 40.7875C43.8162 42.3167 43.517 43.6563 42.9186 44.8063C42.3202 45.9562 41.5474 46.9094 40.6003 47.6656C39.6531 48.4219 38.5997 49.0052 37.44 49.4156C36.2803 49.826 35.133 50.0833 33.9981 50.1875V54H30.841ZM0.371398 30.875C0.660307 26.3625 1.70958 22.2208 3.51923 18.45C5.32892 14.6791 7.68854 11.4187 10.5981 8.66873C13.5076 5.91874 16.8402 3.78644 20.5957 2.27183C24.3513 0.757277 28.3194 0 32.5 0C38.9216 0 44.7881 1.76664 50.0995 5.29994C55.4109 8.83328 59.3048 13.6312 61.781 19.6937V8.74998H65V25H48.9048V21.75H59.2243C57.2681 16.35 53.8334 11.9167 48.9202 8.45C44.007 4.98333 38.5336 3.25 32.5 3.25C28.8064 3.25 25.2747 3.92811 21.905 5.28434C18.5353 6.64062 15.5391 8.52814 12.9164 10.9469C10.2937 13.3657 8.14562 16.2657 6.47214 19.6469C4.79866 23.0281 3.8381 26.7708 3.59045 30.875H0.371398Z" fill="#86888B"/>
</svg>
