<svg width="45" height="29" viewBox="0 0 45 29" fill="none" xmlns="http://www.w3.org/2000/svg">
<g id="Frame 427322550">
<g id="Group">
<path id="Vector" d="M8.9761 27.6192C13.1708 27.6192 16.5713 24.2187 16.5713 20.0239C16.5713 15.8292 13.1708 12.4287 8.9761 12.4287C4.78136 12.4287 1.38086 15.8292 1.38086 20.0239C1.38086 24.2187 4.78136 27.6192 8.9761 27.6192Z" fill="#545454"/>
<path id="Vector_2" d="M8.97619 29.0002C4.02686 29.0002 0 24.9734 0 20.024C0 15.0747 4.02686 11.0479 8.97619 11.0479C13.9255 11.0479 17.9524 15.0747 17.9524 20.024C17.9524 24.9734 13.9255 29.0002 8.97619 29.0002ZM8.97619 13.8098C5.55005 13.8098 2.7619 16.5979 2.7619 20.024C2.7619 23.4502 5.55005 26.2383 8.97619 26.2383C12.4023 26.2383 15.1905 23.4502 15.1905 20.024C15.1905 16.5979 12.4023 13.8098 8.97619 13.8098Z" fill="#545454"/>
</g>
<g id="Group_2">
<path id="Vector_3" d="M32.4527 27.6192C36.6474 27.6192 40.0479 24.2187 40.0479 20.0239C40.0479 15.8292 36.6474 12.4287 32.4527 12.4287C28.2579 12.4287 24.8574 15.8292 24.8574 20.0239C24.8574 24.2187 28.2579 27.6192 32.4527 27.6192Z" fill="#545454"/>
<path id="Vector_4" d="M32.4528 29.0002C27.5034 29.0002 23.4766 24.9734 23.4766 20.024C23.4766 15.0747 27.5034 11.0479 32.4528 11.0479C37.4021 11.0479 41.4289 15.0747 41.4289 20.024C41.4289 24.9734 37.4021 29.0002 32.4528 29.0002ZM32.4528 13.8098C29.0266 13.8098 26.2385 16.5979 26.2385 20.024C26.2385 23.4502 29.0266 26.2383 32.4528 26.2383C35.8789 26.2383 38.667 23.4502 38.667 20.024C38.667 16.5979 35.8789 13.8098 32.4528 13.8098Z" fill="#545454"/>
</g>
<path id="Vector_5" d="M1.38095 20.7143C0.617286 20.7143 0 20.097 0 19.3333C0 8.67238 8.67238 0 19.3333 0C20.097 0 20.7143 0.617286 20.7143 1.38095C20.7143 2.14462 20.097 2.7619 19.3333 2.7619C10.1956 2.7619 2.7619 10.1956 2.7619 19.3333C2.7619 20.097 2.14462 20.7143 1.38095 20.7143Z" fill="#545454"/>
<path id="Vector_6" d="M24.8575 20.7143C24.0938 20.7143 23.4766 20.097 23.4766 19.3333C23.4766 8.67238 32.1489 0 42.8099 0C43.5736 0 44.1908 0.617286 44.1908 1.38095C44.1908 2.14462 43.5736 2.7619 42.8099 2.7619C33.6721 2.7619 26.2385 10.1956 26.2385 19.3333C26.2385 20.097 25.6212 20.7143 24.8575 20.7143Z" fill="#545454"/>
</g>
</svg>
