<svg width="105" height="18" viewBox="0 0 105 18" fill="none" xmlns="http://www.w3.org/2000/svg">
<path d="M10.6337 2.59893L11.8774 5.15545C12.0477 5.50635 12.5032 5.85508 12.8894 5.91923L15.1868 6.33113C16.6579 6.59165 16.9847 7.66252 15.9193 8.7104L14.1048 10.4852C13.8018 10.7827 13.6218 11.371 13.7155 11.7862L14.202 14.0131C14.5843 15.7711 13.6469 16.4424 12.1103 15.5081L9.96372 14.2029C9.57283 13.9644 8.93216 13.9625 8.54142 14.1868L6.36733 15.4377C4.81106 16.3317 3.88677 15.641 4.30955 13.8936L4.84956 11.6825C4.9504 11.2691 4.79161 10.6766 4.49414 10.3737L2.70933 8.55577C1.66812 7.48698 2.01895 6.42438 3.49306 6.19517L5.79469 5.83892C6.1833 5.7756 6.64703 5.44672 6.82215 5.09656L8.12448 2.56431C8.83528 1.20046 9.9624 1.21539 10.6337 2.59893Z" fill="#F7AD1B"/>
<path d="M32.3837 2.59893L33.6274 5.15545C33.7977 5.50635 34.2532 5.85508 34.6394 5.91923L36.9368 6.33113C38.4079 6.59165 38.7347 7.66252 37.6693 8.7104L35.8548 10.4852C35.5518 10.7827 35.3718 11.371 35.4655 11.7862L35.952 14.0131C36.3343 15.7711 35.3969 16.4424 33.8603 15.5081L31.7137 14.2029C31.3228 13.9644 30.6822 13.9625 30.2914 14.1868L28.1173 15.4377C26.5611 16.3317 25.6368 15.641 26.0596 13.8936L26.5996 11.6825C26.7004 11.2691 26.5416 10.6766 26.2441 10.3737L24.4593 8.55577C23.4181 7.48698 23.769 6.42438 25.2431 6.19517L27.5447 5.83892C27.9333 5.7756 28.397 5.44672 28.5721 5.09656L29.8745 2.56431C30.5853 1.20046 31.7124 1.21539 32.3837 2.59893Z" fill="#F7AD1B"/>
<path d="M54.1337 2.59893L55.3774 5.15545C55.5477 5.50635 56.0032 5.85508 56.3894 5.91923L58.6868 6.33113C60.1579 6.59165 60.4847 7.66252 59.4193 8.7104L57.6048 10.4852C57.3018 10.7827 57.1218 11.371 57.2155 11.7862L57.702 14.0131C58.0843 15.7711 57.1469 16.4424 55.6103 15.5081L53.4637 14.2029C53.0728 13.9644 52.4322 13.9625 52.0414 14.1868L49.8673 15.4377C48.3111 16.3317 47.3868 15.641 47.8096 13.8936L48.3496 11.6825C48.4504 11.2691 48.2916 10.6766 47.9941 10.3737L46.2093 8.55577C45.1681 7.48698 45.519 6.42438 46.9931 6.19517L49.2947 5.83892C49.6833 5.7756 50.147 5.44672 50.3221 5.09656L51.6245 2.56431C52.3353 1.20046 53.4624 1.21539 54.1337 2.59893Z" fill="#F7AD1B"/>
<path d="M75.8837 2.59893L77.1274 5.15545C77.2977 5.50635 77.7532 5.85508 78.1394 5.91923L80.4368 6.33113C81.9079 6.59165 82.2347 7.66252 81.1693 8.7104L79.3548 10.4852C79.0518 10.7827 78.8718 11.371 78.9655 11.7862L79.452 14.0131C79.8343 15.7711 78.8969 16.4424 77.3603 15.5081L75.2137 14.2029C74.8228 13.9644 74.1822 13.9625 73.7914 14.1868L71.6173 15.4377C70.0611 16.3317 69.1368 15.641 69.5596 13.8936L70.0996 11.6825C70.2004 11.2691 70.0416 10.6766 69.7441 10.3737L67.9593 8.55577C66.9181 7.48698 67.269 6.42438 68.7431 6.19517L71.0447 5.83892C71.4333 5.7756 71.897 5.44672 72.0721 5.09656L73.3745 2.56431C74.0853 1.20046 75.2124 1.21539 75.8837 2.59893Z" fill="#F7AD1B"/>
<path d="M97.6337 2.59893L98.8774 5.15545C99.0477 5.50635 99.5032 5.85508 99.8894 5.91923L102.187 6.33113C103.658 6.59165 103.985 7.66252 102.919 8.7104L101.105 10.4852C100.802 10.7827 100.622 11.371 100.715 11.7862L101.202 14.0131C101.584 15.7711 100.647 16.4424 99.1103 15.5081L96.9637 14.2029C96.5728 13.9644 95.9322 13.9625 95.5414 14.1868L93.3673 15.4377C91.8111 16.3317 90.8868 15.641 91.3096 13.8936L91.8496 11.6825C91.9504 11.2691 91.7916 10.6766 91.4941 10.3737L89.7093 8.55577C88.6681 7.48698 89.019 6.42438 90.4931 6.19517L92.7947 5.83892C93.1833 5.7756 93.647 5.44672 93.8221 5.09656L95.1245 2.56431C95.8353 1.20046 96.9624 1.21539 97.6337 2.59893Z" fill="#ECECEC"/>
</svg>
