<svg width="71" height="61" viewBox="0 0 71 61" fill="none" xmlns="http://www.w3.org/2000/svg">
<path d="M51.2778 27.8778C52.092 27.8778 52.8012 27.603 53.4055 27.0532C54.0098 26.5035 54.3119 25.8583 54.3119 25.1176C54.3119 24.377 54.0098 23.7318 53.4055 23.1821C52.8012 22.6323 52.092 22.3575 51.2778 22.3575C50.4636 22.3575 49.7543 22.6323 49.15 23.1821C48.5458 23.7318 48.2436 24.377 48.2436 25.1176C48.2436 25.8583 48.5458 26.5035 49.15 27.0532C49.7543 27.603 50.4636 27.8778 51.2778 27.8778ZM19.7222 19.7353H39.4444V16.1471H19.7222V19.7353ZM8.875 61C6.94321 54.7344 4.98108 48.5183 2.98861 42.3516C0.996203 36.1848 0 29.8422 0 23.3235C0 18.8336 1.72441 15.02 5.17324 11.8825C8.62213 8.74516 12.8144 7.17647 17.75 7.17647H39.4444C41.1486 5.13393 43.1626 3.42721 45.4862 2.05633C47.8099 0.68544 50.3978 0 53.25 0C53.781 0 54.2425 0.178245 54.6344 0.534737C55.0263 0.891288 55.2222 1.31108 55.2222 1.79412C55.2222 1.92294 55.1982 2.05175 55.1501 2.18057C55.1021 2.30939 55.063 2.4313 55.0326 2.5463C54.5673 3.61817 54.1944 4.71647 53.9138 5.8412C53.6331 6.96599 53.3765 8.09422 53.1438 9.22589L64.6965 19.7353H71V38.5528L60.6156 41.665L54.2361 61H39.4444V53.8235H23.6667V61H8.875ZM11.8333 57.4118H19.7222V50.2353H43.3889V57.4118H51.2778L57.3917 38.9324L67.0556 35.9721V23.3235H63.1111L49.3056 10.7647C49.3056 9.56863 49.3877 8.4174 49.5521 7.31103C49.7164 6.20466 50.0135 5.10633 50.4433 4.01604C48.5369 4.49447 46.8858 5.33977 45.4901 6.55194C44.0944 7.76417 42.9666 9.16842 42.1069 10.7647H17.75C13.937 10.7647 10.6829 11.9907 7.9875 14.4426C5.29213 16.8946 3.94444 19.8549 3.94444 23.3235C3.94444 29.1843 4.83194 34.9105 6.60694 40.5022C8.38194 46.0939 10.1241 51.7304 11.8333 57.4118Z" fill="#86888B"/>
</svg>
