<svg width="23" height="544" viewBox="0 0 23 544" fill="none" xmlns="http://www.w3.org/2000/svg">
<g clip-path="url(#clip0_1395_529)">
<path d="M11.5 91C17.8513 91 23 85.6274 23 79C23 72.3726 17.8513 67 11.5 67C5.14873 67 0 72.3726 0 79C0 85.6274 5.14873 91 11.5 91Z" fill="white"/>
<path d="M11.5 275C17.8513 275 23 269.627 23 263C23 256.373 17.8513 251 11.5 251C5.14873 251 0 256.373 0 263C0 269.627 5.14873 275 11.5 275Z" fill="white"/>
<path d="M11.5 459C17.8513 459 23 453.627 23 447C23 440.373 17.8513 435 11.5 435C5.14873 435 0 440.373 0 447C0 453.627 5.14873 459 11.5 459Z" fill="white"/>
<path d="M11.5 0V544" stroke="white"/>
</g>
<defs>
<clipPath id="clip0_1395_529">
<rect width="23" height="544" fill="white"/>
</clipPath>
</defs>
</svg>
